<svg xmlns="http://www.w3.org/2000/svg" width="512" height="512" viewBox="0 0 512 512">
  <defs>
    <linearGradient id="aesthetic-nude-bg-mask" x1="0%" y1="0%" x2="100%" y2="100%">
      <stop offset="0%" stop-color="#FCEDE8"/>
      <stop offset="60%" stop-color="#F8E3DC"/>
      <stop offset="100%" stop-color="#F3D9D1"/>
    </linearGradient>
  </defs>

  <!-- Full-bleed background for maskable adaptive icons -->
  <rect width="512" height="512" fill="url(#aesthetic-nude-bg-mask)"/>

  <!-- Scaled content inside safe zone -->
  <g transform="translate(51.2, 51.2) scale(0.8)">
    <g fill="none" stroke="#463937" stroke-width="15" stroke-linecap="round" stroke-linejoin="round">
      <circle cx="256" cy="256" r="148" />

      <line x1="256" y1="126" x2="256" y2="142" />
      <line x1="386" y1="256" x2="370" y2="256" />
      <line x1="256" y1="386" x2="256" y2="370" />
      <line x1="126" y1="256" x2="142" y2="256" />

      <circle cx="256" cy="268" r="5" fill="#463937" stroke-width="6"/>

      <path d="M 256 268 L 192 208" />
      <path d="M 256 268 L 320 208" />

      <path d="M 256 268
               C 216 250, 204 196, 244 178
               C 256 214, 252 248, 256 268 Z" />

      <path d="M 256 268
               C 296 250, 308 196, 268 178
               C 256 214, 260 248, 256 268 Z" />

      <path d="M 230 162 A 26 26 0 0 1 282 162" />
      <circle cx="256" cy="142" r="3" fill="#463937" stroke-width="7"/>
    </g>
  </g>
</svg>
